<svg width="22" height="28" viewBox="0 0 22 28" fill="none" xmlns="http://www.w3.org/2000/svg">
<path opacity="0.35" d="M0 10.836C0 4.8518 4.8518 0 10.836 0C16.8201 0 21.6719 4.8518 21.6719 10.836C21.6719 15.6634 16.1673 22.5551 13.0045 26.1147C11.8518 27.4123 9.8201 27.4123 8.66742 26.1147C5.50467 22.5551 0 15.6634 0 10.836Z" fill="#8F5CDB"/>
<path d="M10.836 14.8994C13.0802 14.8994 14.8995 13.0802 14.8995 10.8359C14.8995 8.59175 13.0802 6.77246 10.836 6.77246C8.59177 6.77246 6.77248 8.59175 6.77248 10.8359C6.77248 13.0802 8.59177 14.8994 10.836 14.8994Z" fill="#8F5CDB"/>
</svg>
