<svg width="32" height="32" viewBox="0 0 32 32" fill="none" xmlns="http://www.w3.org/2000/svg">
<g clip-path="url(#clip0_3851_23244)">
<path opacity="0.8" d="M10.1804 14.9448C10.1804 20.0703 14.288 25.2552 15.232 26.379C15.3394 26.5069 15.5239 26.5185 15.6471 26.4059C16.6629 25.4776 20.795 21.3088 20.7689 14.9448C20.7427 8.54447 16.6031 4.91909 15.6279 4.15351C15.51 4.061 15.35 4.07321 15.2467 4.18177C14.3317 5.1438 10.1804 9.79218 10.1804 14.9448Z" fill="#8F5CDB"/>
<path opacity="0.5" d="M18.8413 14.1712C15.5152 18.071 15.2759 24.6814 15.2648 26.149C15.2635 26.316 15.3963 26.4446 15.5632 26.4389C16.9384 26.3917 22.7876 25.9014 26.8975 21.0424C31.031 16.1557 30.234 10.7111 29.9888 9.49567C29.9591 9.34882 29.8295 9.25425 29.6805 9.26984C28.36 9.408 22.185 10.2508 18.8413 14.1712Z" fill="#8F5CDB"/>
<path opacity="0.3" d="M4.56493 21.5848C1.23885 17.685 0.999507 11.0746 0.988416 9.60696C0.987155 9.44 1.11998 9.31137 1.28685 9.31709C2.66204 9.36424 8.51123 9.85461 12.6212 14.7136C16.7546 19.6003 15.9576 25.0449 15.7124 26.2603C15.6828 26.4072 15.5531 26.5017 15.4041 26.4861C14.0836 26.348 7.90863 25.5051 4.56493 21.5848Z" fill="#8F5CDB"/>
</g>
<defs>
<clipPath id="clip0_3851_23244">
<rect width="32" height="32" fill="white"/>
</clipPath>
</defs>
</svg>
