<svg width="24" height="24" viewBox="0 0 24 24" fill="none" xmlns="http://www.w3.org/2000/svg">
<path opacity="0.35" d="M0.114589 6.02749C0.4106 8.23157 1.56931 13.2971 6.13748 17.8653C10.7056 22.4334 15.7698 23.5921 17.9753 23.8882C19.5726 24.2335 21.3047 23.7948 22.5461 22.5534C24.4875 20.612 17.4552 13.5798 15.5138 15.5212L14.2751 16.7599L7.24285 9.72763L8.48023 8.48891C10.4216 6.54751 3.38938 -0.484755 1.44797 1.45665C0.206593 2.69803 -0.23209 4.43009 0.114589 6.02749Z" fill="#8F5CDB"/>
<path d="M1.45229 1.45222L8.48321 8.48315C10.4206 6.54041 10.4206 3.39629 8.47921 1.45489C6.54047 -0.483851 3.39502 -0.485184 1.45229 1.45222Z" fill="#8F5CDB"/>
<path d="M15.5164 15.5167L22.5474 22.5476C24.4848 20.6062 24.4848 17.4607 22.5434 15.5193C20.6033 13.5806 17.4592 13.5793 15.5164 15.5167Z" fill="#8F5CDB"/>
</svg>
