<svg width="70" height="70" viewBox="0 0 70 70" fill="none" xmlns="http://www.w3.org/2000/svg">
<rect width="70" height="70" fill="#F3EEFB"/>
<path opacity="0.35" d="M17.4819 26.1952C17.9182 29.4439 19.626 36.91 26.3591 43.6431C33.0922 50.3762 40.5564 52.084 43.807 52.5203C46.1614 53.0293 48.7143 52.3827 50.544 50.5531C53.4055 47.6916 43.0405 37.3266 40.179 40.1881L38.3533 42.0139L27.9883 31.6489L29.8121 29.8232C32.6736 26.9617 22.3086 16.5967 19.4472 19.4582C17.6175 21.2879 16.9709 23.8408 17.4819 26.1952Z" fill="#8F5CDB"/>
<path d="M19.4531 19.4525L29.8161 29.8154C32.6717 26.952 32.6717 22.3179 29.8102 19.4564C26.9527 16.5989 22.3166 16.5969 19.4531 19.4525Z" fill="#8F5CDB"/>
<path d="M40.183 40.1824L50.546 50.5454C53.4015 47.684 53.4015 43.0478 50.5401 40.1864C47.6806 37.3288 43.0464 37.3269 40.183 40.1824Z" fill="#8F5CDB"/>
</svg>
