<svg width="256" height="256" viewBox="0 0 256 256" fill="none" xmlns="http://www.w3.org/2000/svg">
<rect width="256" height="256" rx="48" fill="white"/>
<path opacity="0.8" d="M93.8506 121.289C93.8506 154.674 120.606 188.446 126.754 195.766C127.453 196.599 128.655 196.675 129.458 195.941C136.074 189.895 162.989 162.741 162.819 121.289C162.648 79.6005 135.685 55.9865 129.333 50.9999C128.565 50.3973 127.523 50.4769 126.85 51.1839C120.89 57.4501 93.8505 87.7274 93.8506 121.289Z" fill="#8F5CDB"/>
<path opacity="0.5" d="M150.263 116.249C128.599 141.65 127.04 184.707 126.968 194.267C126.959 195.354 127.825 196.192 128.911 196.155C137.869 195.848 175.968 192.654 202.738 161.005C229.661 129.175 224.47 93.7112 222.873 85.7948C222.68 84.8383 221.835 84.2223 220.864 84.3239C212.263 85.2238 172.043 90.7136 150.263 116.249Z" fill="#8F5CDB"/>
<path opacity="0.3" d="M57.2743 164.539C35.6098 139.138 34.0508 96.0807 33.9786 86.5213C33.9704 85.4337 34.8355 84.5959 35.9224 84.6332C44.8798 84.9403 82.9785 88.1342 109.749 119.783C136.672 151.613 131.481 187.077 129.884 194.993C129.691 195.95 128.846 196.566 127.875 196.464C119.274 195.564 79.0535 190.074 57.2743 164.539Z" fill="#8F5CDB"/>
</svg>
