<svg width="118" height="118" viewBox="0 0 118 118" fill="none" xmlns="http://www.w3.org/2000/svg">
<rect width="118" height="118" fill="#F3EEFB"/>
<path opacity="0.35" d="M79.2663 92.9392H38.2439C32.5794 92.9392 27.9883 88.3481 27.9883 82.6836V55.3353C27.9883 49.6708 32.5794 45.0797 38.2439 45.0797H79.2663C84.9308 45.0797 89.5219 49.6708 89.5219 55.3353V82.6836C89.5219 88.3481 84.9308 92.9392 79.2663 92.9392Z" fill="#8F5CDB"/>
<path d="M45.0793 45.0798C45.0793 37.5283 51.2018 31.4057 58.7534 31.4057C66.3049 31.4057 72.4275 37.5283 72.4275 45.0798H79.2646C79.2646 33.7508 70.0824 24.5686 58.7534 24.5686C47.4244 24.5686 38.2422 33.7508 38.2422 45.0798H45.0793Z" fill="#8F5CDB"/>
<path d="M58.755 62.1725C54.9776 62.1725 51.918 65.2321 51.918 69.0096C51.918 72.787 54.9776 75.8466 58.755 75.8466C62.5325 75.8466 65.5921 72.787 65.5921 69.0096C65.5921 65.2321 62.5325 62.1725 58.755 62.1725Z" fill="#8F5CDB"/>
</svg>
